STARTFONT 2.1
FONT -Linotype-New Century Schoolbook-Bold-R-Normal--12-120-72-72-P-71-ISO8859-1
SIZE 12 72 72
FONTBOUNDINGBOX 17 16 -3 -3

STARTPROPERTIES 22
FONTNAME_REGISTRY "-"
FOUNDRY "Linotype"
FAMILY_NAME "New Century Schoolbook"
WEIGHT_NAME "Bold"
SLANT "R"
SETWIDTH_NAME "Normal"
ADD_STYLE_NAME ""
PIXEL_SIZE 12
POINT_SIZE 120
RESOLUTION_X 72
RESOLUTION_Y 72
SPACING "P"
CHARSET_REGISTRY "ISO8859"
CHARSET_ENCODING "1"
FULL_NAME "NewCenturySchlbk-Bold"
AVERAGE_WIDTH 71
WEIGHT 10
X_HEIGHT 6
QUAD_WIDTH 7
DEFAULT_CHAR 32
FONT_DESCENT 3
FONT_ASCENT 11
ENDPROPERTIES

CHARS 190

STARTCHAR space
ENCODING 32
SWIDTH 287 0
DWIDTH 3 0
BBX 1 1 0 0
BITMAP
00
ENDCHAR

STARTCHAR exclam
ENCODING 33
SWIDTH 296 0
DWIDTH 4 0
BBX 2 9 1 0
BITMAP
C0
C0
C0
C0
C0
C0
00
C0
C0
ENDCHAR

STARTCHAR quotedbl
ENCODING 34
SWIDTH 333 0
DWIDTH 4 0
BBX 5 4 0 5
BITMAP
D8
D8
D8
90
ENDCHAR

STARTCHAR numbersign
ENCODING 35
SWIDTH 574 0
DWIDTH 7 0
BBX 6 9 0 0
BITMAP
28
28
28
FC
50
FC
50
50
50
ENDCHAR

STARTCHAR dollar
ENCODING 36
SWIDTH 574 0
DWIDTH 7 0
BBX 7 11 0 -1
BITMAP
10
7E
D6
D0
F0
3C
1E
D6
D6
7C
10
ENDCHAR

STARTCHAR percent
ENCODING 37
SWIDTH 833 0
DWIDTH 10 0
BBX 11 9 0 0
BITMAP
3080
4F00
8A00
9200
64C0
0520
0A20
0A40
1180
ENDCHAR

STARTCHAR ampersand
ENCODING 38
SWIDTH 852 0
DWIDTH 10 0
BBX 9 9 1 0
BITMAP
1C00
3600
3600
3F80
5B00
DE00
EE80
FF80
7B00
ENDCHAR

STARTCHAR quoteright
ENCODING 39
SWIDTH 241 0
DWIDTH 3 0
BBX 2 4 0 5
BITMAP
C0
C0
C0
80
ENDCHAR

STARTCHAR parenleft
ENCODING 40
SWIDTH 389 0
DWIDTH 5 0
BBX 4 10 0 -1
BITMAP
10
20
40
C0
C0
C0
C0
40
20
10
ENDCHAR

STARTCHAR parenright
ENCODING 41
SWIDTH 389 0
DWIDTH 5 0
BBX 4 10 0 -1
BITMAP
80
40
20
30
30
30
30
20
40
80
ENDCHAR

STARTCHAR asterisk
ENCODING 42
SWIDTH 500 0
DWIDTH 6 0
BBX 5 5 1 4
BITMAP
20
F8
70
F8
20
ENDCHAR

STARTCHAR plus
ENCODING 43
SWIDTH 606 0
DWIDTH 7 0
BBX 5 5 1 0
BITMAP
20
20
F8
20
20
ENDCHAR

STARTCHAR comma
ENCODING 44
SWIDTH 278 0
DWIDTH 3 0
BBX 2 5 1 -3
BITMAP
C0
C0
C0
80
80
ENDCHAR

STARTCHAR minus
ENCODING 45
SWIDTH 606 0
DWIDTH 7 0
BBX 6 1 1 2
BITMAP
FC
ENDCHAR

STARTCHAR period
ENCODING 46
SWIDTH 278 0
DWIDTH 3 0
BBX 2 2 1 0
BITMAP
C0
C0
ENDCHAR

STARTCHAR slash
ENCODING 47
SWIDTH 278 0
DWIDTH 3 0
BBX 4 9 0 0
BITMAP
10
30
20
20
60
40
40
C0
80
ENDCHAR

STARTCHAR zero
ENCODING 48
SWIDTH 574 0
DWIDTH 7 0
BBX 6 9 0 0
BITMAP
30
48
CC
CC
CC
CC
CC
48
30
ENDCHAR

STARTCHAR one
ENCODING 49
SWIDTH 574 0
DWIDTH 7 0
BBX 6 9 0 0
BITMAP
08
78
18
18
18
18
18
18
3C
ENDCHAR

STARTCHAR two
ENCODING 50
SWIDTH 574 0
DWIDTH 7 0
BBX 6 9 0 0
BITMAP
78
CC
CC
CC
18
30
64
FC
FC
ENDCHAR

STARTCHAR three
ENCODING 51
SWIDTH 574 0
DWIDTH 7 0
BBX 6 9 0 0
BITMAP
78
CC
CC
08
3C
0C
CC
8C
78
ENDCHAR

STARTCHAR four
ENCODING 52
SWIDTH 574 0
DWIDTH 7 0
BBX 6 9 0 0
BITMAP
08
18
38
38
58
D8
FC
18
3C
ENDCHAR

STARTCHAR five
ENCODING 53
SWIDTH 574 0
DWIDTH 7 0
BBX 6 9 0 0
BITMAP
FC
F8
80
F8
0C
CC
CC
8C
78
ENDCHAR

STARTCHAR six
ENCODING 54
SWIDTH 574 0
DWIDTH 7 0
BBX 6 9 0 0
BITMAP
3C
6C
C0
F8
CC
CC
CC
CC
78
ENDCHAR

STARTCHAR seven
ENCODING 55
SWIDTH 574 0
DWIDTH 7 0
BBX 5 9 1 0
BITMAP
F8
F8
98
98
30
60
60
60
60
ENDCHAR

STARTCHAR eight
ENCODING 56
SWIDTH 574 0
DWIDTH 7 0
BBX 7 9 0 0
BITMAP
7C
C6
C6
FC
7E
C6
C6
C6
7C
ENDCHAR

STARTCHAR nine
ENCODING 57
SWIDTH 574 0
DWIDTH 7 0
BBX 6 9 0 0
BITMAP
70
C8
CC
CC
7C
0C
0C
C8
F0
ENDCHAR

STARTCHAR colon
ENCODING 58
SWIDTH 278 0
DWIDTH 3 0
BBX 2 6 1 0
BITMAP
C0
C0
00
00
C0
C0
ENDCHAR

STARTCHAR semicolon
ENCODING 59
SWIDTH 278 0
DWIDTH 3 0
BBX 2 9 1 -3
BITMAP
C0
C0
00
C0
C0
C0
C0
80
80
ENDCHAR

STARTCHAR less
ENCODING 60
SWIDTH 606 0
DWIDTH 7 0
BBX 6 6 1 0
BITMAP
04
18
E0
E0
18
04
ENDCHAR

STARTCHAR equal
ENCODING 61
SWIDTH 606 0
DWIDTH 7 0
BBX 6 4 1 1
BITMAP
FC
00
00
FC
ENDCHAR

STARTCHAR greater
ENCODING 62
SWIDTH 606 0
DWIDTH 7 0
BBX 6 6 1 0
BITMAP
80
60
1C
1C
60
80
ENDCHAR

STARTCHAR question
ENCODING 63
SWIDTH 500 0
DWIDTH 6 0
BBX 5 9 1 0
BITMAP
70
98
D8
18
30
20
00
30
30
ENDCHAR

STARTCHAR at
ENCODING 64
SWIDTH 747 0
DWIDTH 9 0
BBX 9 9 0 0
BITMAP
3E00
4100
9A80
A680
A280
A500
9E80
4100
3E00
ENDCHAR

STARTCHAR A
ENCODING 65
SWIDTH 759 0
DWIDTH 9 0
BBX 10 9 0 0
BITMAP
0C00
0C00
1C00
1600
3600
3F00
4300
4300
E7C0
ENDCHAR

STARTCHAR B
ENCODING 66
SWIDTH 778 0
DWIDTH 9 0
BBX 8 9 1 0
BITMAP
FE
63
63
62
7C
62
63
63
FE
ENDCHAR

STARTCHAR C
ENCODING 67
SWIDTH 778 0
DWIDTH 9 0
BBX 8 9 1 0
BITMAP
3F
63
C1
C1
C0
C1
C1
63
3E
ENDCHAR

STARTCHAR D
ENCODING 68
SWIDTH 833 0
DWIDTH 10 0
BBX 9 9 0 0
BITMAP
FE00
6300
6180
6180
6180
6180
6180
6300
FE00
ENDCHAR

STARTCHAR E
ENCODING 69
SWIDTH 759 0
DWIDTH 9 0
BBX 8 9 0 0
BITMAP
FF
61
65
65
7C
64
65
61
FF
ENDCHAR

STARTCHAR F
ENCODING 70
SWIDTH 722 0
DWIDTH 9 0
BBX 8 9 0 0
BITMAP
FF
61
65
65
7C
64
64
60
F0
ENDCHAR

STARTCHAR G
ENCODING 71
SWIDTH 833 0
DWIDTH 10 0
BBX 9 9 1 0
BITMAP
3F00
6300
C100
C000
C780
C300
C300
6700
3D00
ENDCHAR

STARTCHAR H
ENCODING 72
SWIDTH 870 0
DWIDTH 10 0
BBX 9 9 1 0
BITMAP
F780
6300
6300
6300
7F00
6300
6300
6300
F780
ENDCHAR

STARTCHAR I
ENCODING 73
SWIDTH 444 0
DWIDTH 5 0
BBX 4 9 1 0
BITMAP
F0
60
60
60
60
60
60
60
F0
ENDCHAR

STARTCHAR J
ENCODING 74
SWIDTH 648 0
DWIDTH 8 0
BBX 7 9 0 0
BITMAP
1E
0C
0C
0C
0C
CC
CC
CC
78
ENDCHAR

STARTCHAR K
ENCODING 75
SWIDTH 815 0
DWIDTH 10 0
BBX 9 9 1 0
BITMAP
F780
6300
6600
6C00
7C00
7E00
6700
6300
F780
ENDCHAR

STARTCHAR L
ENCODING 76
SWIDTH 722 0
DWIDTH 9 0
BBX 8 9 0 0
BITMAP
F0
60
60
60
60
61
61
61
FF
ENDCHAR

STARTCHAR M
ENCODING 77
SWIDTH 981 0
DWIDTH 12 0
BBX 11 9 0 0
BITMAP
F1E0
71C0
51C0
5BC0
5AC0
4EC0
4CC0
4CC0
EDE0
ENDCHAR

STARTCHAR N
ENCODING 78
SWIDTH 833 0
DWIDTH 10 0
BBX 9 9 1 0
BITMAP
E380
7100
7900
5D00
4F00
4700
4300
4100
E100
ENDCHAR

STARTCHAR O
ENCODING 79
SWIDTH 833 0
DWIDTH 10 0
BBX 9 9 1 0
BITMAP
3E00
6300
C180
C180
C180
C180
C180
6300
3E00
ENDCHAR

STARTCHAR P
ENCODING 80
SWIDTH 759 0
DWIDTH 9 0
BBX 8 9 1 0
BITMAP
FE
63
63
63
7E
60
60
60
F0
ENDCHAR

STARTCHAR Q
ENCODING 81
SWIDTH 833 0
DWIDTH 10 0
BBX 9 12 1 -3
BITMAP
3E00
6300
C180
C180
C180
DD80
E380
6300
1E00
0280
0380
0100
ENDCHAR

STARTCHAR R
ENCODING 82
SWIDTH 815 0
DWIDTH 10 0
BBX 9 9 1 0
BITMAP
FE00
6300
6300
6300
7E00
6600
6600
6780
F700
ENDCHAR

STARTCHAR S
ENCODING 83
SWIDTH 667 0
DWIDTH 8 0
BBX 8 9 0 0
BITMAP
7F
C3
C1
F0
7E
0F
83
C3
FE
ENDCHAR

STARTCHAR T
ENCODING 84
SWIDTH 722 0
DWIDTH 9 0
BBX 8 9 0 0
BITMAP
FF
FF
99
99
18
18
18
18
3C
ENDCHAR

STARTCHAR U
ENCODING 85
SWIDTH 833 0
DWIDTH 10 0
BBX 9 9 1 0
BITMAP
F380
6100
6100
6100
6100
6100
6100
6300
3E00
ENDCHAR

STARTCHAR V
ENCODING 86
SWIDTH 759 0
DWIDTH 9 0
BBX 10 9 0 0
BITMAP
F3C0
6180
3300
3300
3300
1E00
1E00
0C00
0C00
ENDCHAR

STARTCHAR W
ENCODING 87
SWIDTH 981 0
DWIDTH 12 0
BBX 12 9 0 0
BITMAP
EF70
6620
6660
3740
3740
3FC0
1980
1980
1980
ENDCHAR

STARTCHAR X
ENCODING 88
SWIDTH 722 0
DWIDTH 9 0
BBX 9 9 0 0
BITMAP
F780
6300
3600
1C00
0800
1C00
3600
6300
F780
ENDCHAR

STARTCHAR Y
ENCODING 89
SWIDTH 722 0
DWIDTH 9 0
BBX 8 9 1 0
BITMAP
F7
62
36
34
1C
18
18
18
3C
ENDCHAR

STARTCHAR Z
ENCODING 90
SWIDTH 667 0
DWIDTH 8 0
BBX 8 9 0 0
BITMAP
FF
C6
8E
1C
18
39
71
63
FF
ENDCHAR

STARTCHAR bracketleft
ENCODING 91
SWIDTH 389 0
DWIDTH 5 0
BBX 4 11 1 -2
BITMAP
F0
C0
C0
C0
C0
C0
C0
C0
C0
C0
F0
ENDCHAR

STARTCHAR backslash
ENCODING 92
SWIDTH 606 0
DWIDTH 7 0
BBX 6 9 1 0
BITMAP
C0
E0
60
70
30
38
18
1C
0C
ENDCHAR

STARTCHAR bracketright
ENCODING 93
SWIDTH 389 0
DWIDTH 5 0
BBX 4 11 0 -2
BITMAP
F0
30
30
30
30
30
30
30
30
30
F0
ENDCHAR

STARTCHAR asciicircum
ENCODING 94
SWIDTH 606 0
DWIDTH 7 0
BBX 6 5 1 4
BITMAP
30
78
78
CC
84
ENDCHAR

STARTCHAR underscore
ENCODING 95
SWIDTH 500 0
DWIDTH 6 0
BBX 6 2 0 -1
BITMAP
FC
FC
ENDCHAR

STARTCHAR quoteleft
ENCODING 96
SWIDTH 241 0
DWIDTH 3 0
BBX 2 4 0 5
BITMAP
40
C0
C0
C0
ENDCHAR

STARTCHAR a
ENCODING 97
SWIDTH 611 0
DWIDTH 7 0
BBX 7 6 0 0
BITMAP
78
CC
1C
6C
CC
F6
ENDCHAR

STARTCHAR b
ENCODING 98
SWIDTH 648 0
DWIDTH 8 0
BBX 7 9 0 0
BITMAP
E0
60
60
7C
66
66
66
66
5C
ENDCHAR

STARTCHAR c
ENCODING 99
SWIDTH 556 0
DWIDTH 7 0
BBX 6 6 0 0
BITMAP
7C
CC
C0
C0
C4
78
ENDCHAR

STARTCHAR d
ENCODING 100
SWIDTH 667 0
DWIDTH 8 0
BBX 7 9 1 0
BITMAP
1C
0C
0C
7C
CC
CC
CC
CC
7E
ENDCHAR

STARTCHAR e
ENCODING 101
SWIDTH 574 0
DWIDTH 7 0
BBX 6 6 0 0
BITMAP
78
CC
FC
C0
C4
78
ENDCHAR

STARTCHAR f
ENCODING 102
SWIDTH 389 0
DWIDTH 5 0
BBX 5 9 0 0
BITMAP
38
78
60
F0
60
60
60
60
F0
ENDCHAR

STARTCHAR g
ENCODING 103
SWIDTH 611 0
DWIDTH 7 0
BBX 7 10 0 -3
BITMAP
06
7C
CC
CC
F8
C0
FC
CC
CC
F8
ENDCHAR

STARTCHAR h
ENCODING 104
SWIDTH 685 0
DWIDTH 8 0
BBX 8 9 0 0
BITMAP
E0
60
60
7C
66
66
66
66
FF
ENDCHAR

STARTCHAR i
ENCODING 105
SWIDTH 370 0
DWIDTH 4 0
BBX 4 9 0 0
BITMAP
60
60
00
E0
60
60
60
60
F0
ENDCHAR

STARTCHAR j
ENCODING 106
SWIDTH 352 0
DWIDTH 4 0
BBX 4 12 0 -3
BITMAP
30
30
00
70
30
30
30
30
30
30
F0
E0
ENDCHAR

STARTCHAR k
ENCODING 107
SWIDTH 667 0
DWIDTH 8 0
BBX 7 9 1 0
BITMAP
E0
60
60
6E
64
78
6C
64
FE
ENDCHAR

STARTCHAR l
ENCODING 108
SWIDTH 352 0
DWIDTH 4 0
BBX 4 9 0 0
BITMAP
E0
60
60
60
60
60
60
60
F0
ENDCHAR

STARTCHAR m
ENCODING 109
SWIDTH 963 0
DWIDTH 12 0
BBX 12 6 0 0
BITMAP
FFC0
6660
6660
6660
6660
FFF0
ENDCHAR

STARTCHAR n
ENCODING 110
SWIDTH 685 0
DWIDTH 8 0
BBX 8 6 0 0
BITMAP
FC
66
66
66
66
FF
ENDCHAR

STARTCHAR o
ENCODING 111
SWIDTH 611 0
DWIDTH 7 0
BBX 7 6 0 0
BITMAP
7C
C6
C6
C6
C6
7C
ENDCHAR

STARTCHAR p
ENCODING 112
SWIDTH 667 0
DWIDTH 8 0
BBX 7 9 0 -3
BITMAP
FC
66
66
66
66
7C
60
60
F0
ENDCHAR

STARTCHAR q
ENCODING 113
SWIDTH 648 0
DWIDTH 8 0
BBX 7 9 1 -3
BITMAP
74
CC
CC
CC
CC
7C
0C
0C
1E
ENDCHAR

STARTCHAR r
ENCODING 114
SWIDTH 519 0
DWIDTH 6 0
BBX 6 6 0 0
BITMAP
FC
6C
60
60
60
F0
ENDCHAR

STARTCHAR s
ENCODING 115
SWIDTH 500 0
DWIDTH 6 0
BBX 5 6 1 0
BITMAP
78
C8
60
30
98
F0
ENDCHAR

STARTCHAR t
ENCODING 116
SWIDTH 426 0
DWIDTH 5 0
BBX 5 8 0 0
BITMAP
20
60
F8
60
60
68
78
30
ENDCHAR

STARTCHAR u
ENCODING 117
SWIDTH 685 0
DWIDTH 8 0
BBX 8 6 0 0
BITMAP
EE
66
66
66
7E
37
ENDCHAR

STARTCHAR v
ENCODING 118
SWIDTH 611 0
DWIDTH 7 0
BBX 7 6 0 0
BITMAP
EE
64
24
38
18
18
ENDCHAR

STARTCHAR w
ENCODING 119
SWIDTH 889 0
DWIDTH 11 0
BBX 10 6 0 0
BITMAP
ECC0
6CC0
6CC0
7F80
3300
3300
ENDCHAR

STARTCHAR x
ENCODING 120
SWIDTH 611 0
DWIDTH 7 0
BBX 7 6 0 0
BITMAP
EE
6C
38
38
6C
EE
ENDCHAR

STARTCHAR y
ENCODING 121
SWIDTH 611 0
DWIDTH 7 0
BBX 7 9 0 -3
BITMAP
EE
64
64
24
38
18
10
D0
E0
ENDCHAR

STARTCHAR z
ENCODING 122
SWIDTH 537 0
DWIDTH 6 0
BBX 5 6 1 0
BITMAP
F8
98
30
60
C8
F8
ENDCHAR

STARTCHAR braceleft
ENCODING 123
SWIDTH 389 0
DWIDTH 5 0
BBX 4 11 1 -2
BITMAP
70
60
60
60
60
C0
60
60
60
60
70
ENDCHAR

STARTCHAR bar
ENCODING 124
SWIDTH 606 0
DWIDTH 7 0
BBX 2 9 3 0
BITMAP
C0
C0
C0
C0
C0
C0
C0
C0
C0
ENDCHAR

STARTCHAR braceright
ENCODING 125
SWIDTH 389 0
DWIDTH 5 0
BBX 4 11 0 -2
BITMAP
E0
60
60
60
60
30
60
60
60
60
E0
ENDCHAR

STARTCHAR asciitilde
ENCODING 126
SWIDTH 606 0
DWIDTH 7 0
BBX 6 3 1 2
BITMAP
64
FC
98
ENDCHAR

STARTCHAR exclamdown
ENCODING 161
SWIDTH 296 0
DWIDTH 4 0
BBX 2 9 1 -3
BITMAP
C0
C0
00
C0
C0
C0
C0
C0
C0
ENDCHAR

STARTCHAR cent
ENCODING 162
SWIDTH 574 0
DWIDTH 7 0
BBX 6 8 0 -1
BITMAP
04
78
CC
DC
D0
E4
78
40
ENDCHAR

STARTCHAR sterling
ENCODING 163
SWIDTH 574 0
DWIDTH 7 0
BBX 6 9 0 0
BITMAP
38
64
6C
60
F8
20
E4
BC
D8
ENDCHAR

STARTCHAR currency
ENCODING 164
SWIDTH 574 0
DWIDTH 7 0
BBX 7 6 0 1
BITMAP
BA
7C
C6
C4
7C
BA
ENDCHAR

STARTCHAR yen
ENCODING 165
SWIDTH 574 0
DWIDTH 9 0
BBX 8 9 0 0
BITMAP
F7
62
36
14
3C
18
3C
18
3C
ENDCHAR

STARTCHAR brokenbar
ENCODING 166
SWIDTH 606 0
DWIDTH 7 0
BBX 2 9 3 0
BITMAP
C0
C0
C0
C0
00
C0
C0
C0
C0
ENDCHAR

STARTCHAR section
ENCODING 167
SWIDTH 500 0
DWIDTH 6 0
BBX 4 10 1 -1
BITMAP
60
90
80
E0
90
90
70
10
90
60
ENDCHAR

STARTCHAR dieresis
ENCODING 168
SWIDTH 333 0
DWIDTH 4 0
BBX 5 2 0 7
BITMAP
D8
D8
ENDCHAR

STARTCHAR copyright
ENCODING 169
SWIDTH 747 0
DWIDTH 9 0
BBX 9 9 0 0
BITMAP
3E00
4100
9E80
B280
B080
B080
9E80
4100
3E00
ENDCHAR

STARTCHAR ordfeminine
ENCODING 170
SWIDTH 367 0
DWIDTH 4 0
BBX 6 6 0 3
BITMAP
F8
90
90
FC
00
F8
ENDCHAR

STARTCHAR guillemotleft
ENCODING 171
SWIDTH 500 0
DWIDTH 6 0
BBX 4 4 1 1
BITMAP
50
A0
A0
50
ENDCHAR

STARTCHAR logicalnot
ENCODING 172
SWIDTH 606 0
DWIDTH 7 0
BBX 6 3 1 0
BITMAP
FC
04
04
ENDCHAR

STARTCHAR hyphen
ENCODING 173
SWIDTH 333 0
DWIDTH 4 0
BBX 3 2 1 2
BITMAP
E0
E0
ENDCHAR

STARTCHAR registered
ENCODING 174
SWIDTH 747 0
DWIDTH 9 0
BBX 9 9 0 0
BITMAP
3E00
4100
BC80
B680
BC80
B480
B680
4100
3E00
ENDCHAR

STARTCHAR macron
ENCODING 175
SWIDTH 333 0
DWIDTH 4 0
BBX 4 2 0 7
BITMAP
F0
F0
ENDCHAR

STARTCHAR degree
ENCODING 176
SWIDTH 400 0
DWIDTH 7 0
BBX 4 4 2 5
BITMAP
60
90
90
60
ENDCHAR

STARTCHAR plusminus
ENCODING 177
SWIDTH 606 0
DWIDTH 7 0
BBX 5 8 1 0
BITMAP
20
20
F8
20
20
20
00
F8
ENDCHAR

STARTCHAR twosuperior
ENCODING 178
SWIDTH 344 0
DWIDTH 4 0
BBX 3 5 -3 4
BITMAP
C0
A0
20
40
E0
ENDCHAR

STARTCHAR threesuperior
ENCODING 179
SWIDTH 344 0
DWIDTH 4 0
BBX 3 5 -3 4
BITMAP
E0
A0
60
A0
E0
ENDCHAR

STARTCHAR acute
ENCODING 180
SWIDTH 333 0
DWIDTH 4 0
BBX 3 2 1 7
BITMAP
60
C0
ENDCHAR

STARTCHAR mu
ENCODING 181
SWIDTH 685 0
DWIDTH 7 0
BBX 6 9 1 -3
BITMAP
D8
D8
D8
D8
DC
FC
80
C0
C0
ENDCHAR

STARTCHAR paragraph
ENCODING 182
SWIDTH 747 0
DWIDTH 9 0
BBX 8 11 0 -2
BITMAP
7F
F6
F6
F6
76
36
36
36
36
36
7F
ENDCHAR

STARTCHAR periodcentered
ENCODING 183
SWIDTH 278 0
DWIDTH 6 0
BBX 2 2 2 4
BITMAP
C0
C0
ENDCHAR

STARTCHAR cedilla
ENCODING 184
SWIDTH 333 0
DWIDTH 4 0
BBX 4 3 0 -3
BITMAP
20
30
F0
ENDCHAR

STARTCHAR onesuperior
ENCODING 185
SWIDTH 344 0
DWIDTH 3 0
BBX 3 5 -3 4
BITMAP
C0
40
40
40
E0
ENDCHAR

STARTCHAR ordmasculine
ENCODING 186
SWIDTH 367 0
DWIDTH 4 0
BBX 4 6 0 3
BITMAP
60
90
90
60
00
F0
ENDCHAR

STARTCHAR guillemotright
ENCODING 187
SWIDTH 500 0
DWIDTH 6 0
BBX 4 4 1 1
BITMAP
A0
50
50
A0
ENDCHAR

STARTCHAR onequarter
ENCODING 188
SWIDTH 861 0
DWIDTH 9 0
BBX 9 9 0 0
BITMAP
C600
4400
4C00
4800
F900
1300
3500
2780
6100
ENDCHAR

STARTCHAR onehalf
ENCODING 189
SWIDTH 861 0
DWIDTH 9 0
BBX 8 9 0 0
BITMAP
C6
44
4C
48
FE
15
31
22
67
ENDCHAR

STARTCHAR threequarters
ENCODING 190
SWIDTH 861 0
DWIDTH 10 0
BBX 10 9 0 0
BITMAP
E300
A200
6600
A400
EC80
0980
1A80
13C0
3080
ENDCHAR

STARTCHAR questiondown
ENCODING 191
SWIDTH 500 0
DWIDTH 6 0
BBX 5 10 0 -3
BITMAP
60
60
00
20
20
40
D8
C8
C8
70
ENDCHAR

STARTCHAR Agrave
ENCODING 192
SWIDTH 759 0
DWIDTH 9 0
BBX 10 12 0 0
BITMAP
1800
0C00
0000
0C00
0C00
1C00
1600
3600
3F00
4300
4300
E7C0
ENDCHAR

STARTCHAR Aacute
ENCODING 193
SWIDTH 759 0
DWIDTH 9 0
BBX 10 12 0 0
BITMAP
0600
0C00
0000
0C00
0C00
1C00
1600
3600
3F00
4300
4300
E7C0
ENDCHAR

STARTCHAR Acircumflex
ENCODING 194
SWIDTH 759 0
DWIDTH 9 0
BBX 10 12 0 0
BITMAP
0C00
1200
0000
0C00
0C00
1C00
1600
3600
3F00
4300
4300
E7C0
ENDCHAR

STARTCHAR Atilde
ENCODING 195
SWIDTH 759 0
DWIDTH 9 0
BBX 10 13 0 0
BITMAP
0A00
1E00
1400
0000
0C00
0C00
1C00
1600
3600
3F00
4300
4300
E7C0
ENDCHAR

STARTCHAR Adieresis
ENCODING 196
SWIDTH 759 0
DWIDTH 9 0
BBX 10 12 0 0
BITMAP
3600
3600
0000
0C00
0C00
1C00
1600
3600
3F00
4300
4300
E7C0
ENDCHAR

STARTCHAR Aring
ENCODING 197
SWIDTH 759 0
DWIDTH 9 0
BBX 10 13 0 0
BITMAP
1C00
1400
1C00
0000
0C00
0C00
1C00
1600
3600
3F00
4300
4300
E7C0
ENDCHAR

STARTCHAR AE
ENCODING 198
SWIDTH 981 0
DWIDTH 12 0
BBX 12 9 0 0
BITMAP
3FF0
1E10
1650
3650
27C0
7E40
4650
4610
EFF0
ENDCHAR

STARTCHAR Ccedilla
ENCODING 199
SWIDTH 778 0
DWIDTH 9 0
BBX 8 12 1 -3
BITMAP
3F
63
C1
C1
C0
C1
C1
63
3E
08
0C
1C
ENDCHAR

STARTCHAR Egrave
ENCODING 200
SWIDTH 759 0
DWIDTH 9 0
BBX 8 12 0 0
BITMAP
30
18
00
FF
61
65
65
7C
64
65
61
FF
ENDCHAR

STARTCHAR Eacute
ENCODING 201
SWIDTH 759 0
DWIDTH 9 0
BBX 8 12 0 0
BITMAP
0C
18
00
FF
61
65
65
7C
64
65
61
FF
ENDCHAR

STARTCHAR Ecircumflex
ENCODING 202
SWIDTH 759 0
DWIDTH 9 0
BBX 8 12 0 0
BITMAP
18
24
00
FF
61
65
65
7C
64
65
61
FF
ENDCHAR

STARTCHAR Edieresis
ENCODING 203
SWIDTH 759 0
DWIDTH 9 0
BBX 8 12 0 0
BITMAP
36
36
00
FF
61
65
65
7C
64
65
61
FF
ENDCHAR

STARTCHAR Igrave
ENCODING 204
SWIDTH 444 0
DWIDTH 5 0
BBX 4 12 1 0
BITMAP
C0
60
00
F0
60
60
60
60
60
60
60
F0
ENDCHAR

STARTCHAR Iacute
ENCODING 205
SWIDTH 444 0
DWIDTH 5 0
BBX 4 12 1 0
BITMAP
30
60
00
F0
60
60
60
60
60
60
60
F0
ENDCHAR

STARTCHAR Icircumflex
ENCODING 206
SWIDTH 444 0
DWIDTH 5 0
BBX 4 12 1 0
BITMAP
60
90
00
F0
60
60
60
60
60
60
60
F0
ENDCHAR

STARTCHAR Idieresis
ENCODING 207
SWIDTH 444 0
DWIDTH 5 0
BBX 5 12 2 0
BITMAP
D8
D8
00
78
30
30
30
30
30
30
30
78
ENDCHAR

STARTCHAR Eth
ENCODING 208
SWIDTH 833 0
DWIDTH 10 0
BBX 9 9 0 0
BITMAP
FE00
6300
6180
F980
6180
6180
6180
6300
FE00
ENDCHAR

STARTCHAR Ntilde
ENCODING 209
SWIDTH 833 0
DWIDTH 10 0
BBX 9 13 1 0
BITMAP
1400
3C00
2800
0000
E380
7100
7900
5D00
4F00
4700
4300
4100
E100
ENDCHAR

STARTCHAR Ograve
ENCODING 210
SWIDTH 833 0
DWIDTH 10 0
BBX 9 12 1 0
BITMAP
3000
1800
0000
3E00
6300
C180
C180
C180
C180
C180
6300
3E00
ENDCHAR

STARTCHAR Oacute
ENCODING 211
SWIDTH 833 0
DWIDTH 10 0
BBX 9 12 1 0
BITMAP
0C00
1800
0000
3E00
6300
C180
C180
C180
C180
C180
6300
3E00
ENDCHAR

STARTCHAR Ocircumflex
ENCODING 212
SWIDTH 833 0
DWIDTH 10 0
BBX 9 12 1 0
BITMAP
0C00
1200
0000
3E00
6300
C180
C180
C180
C180
C180
6300
3E00
ENDCHAR

STARTCHAR Otilde
ENCODING 213
SWIDTH 833 0
DWIDTH 10 0
BBX 9 13 1 0
BITMAP
0A00
1E00
1400
0000
3E00
6300
C180
C180
C180
C180
C180
6300
3E00
ENDCHAR

STARTCHAR Odieresis
ENCODING 214
SWIDTH 833 0
DWIDTH 10 0
BBX 9 12 1 0
BITMAP
3600
3600
0000
3E00
6300
C180
C180
C180
C180
C180
6300
3E00
ENDCHAR

STARTCHAR multiply
ENCODING 215
SWIDTH 606 0
DWIDTH 7 0
BBX 6 6 1 0
BITMAP
84
48
30
30
48
84
ENDCHAR

STARTCHAR Oslash
ENCODING 216
SWIDTH 833 0
DWIDTH 10 0
BBX 9 9 1 0
BITMAP
3E80
6380
C380
C780
CD80
D980
F180
6300
7E00
ENDCHAR

STARTCHAR Ugrave
ENCODING 217
SWIDTH 833 0
DWIDTH 10 0
BBX 9 12 1 0
BITMAP
3000
1800
0000
F380
6100
6100
6100
6100
6100
6100
6300
3E00
ENDCHAR

STARTCHAR Uacute
ENCODING 218
SWIDTH 833 0
DWIDTH 10 0
BBX 9 12 1 0
BITMAP
0C00
1800
0000
F380
6100
6100
6100
6100
6100
6100
6300
3E00
ENDCHAR

STARTCHAR Ucircumflex
ENCODING 219
SWIDTH 833 0
DWIDTH 10 0
BBX 9 12 1 0
BITMAP
1800
2400
0000
F380
6100
6100
6100
6100
6100
6100
6300
3E00
ENDCHAR

STARTCHAR Udieresis
ENCODING 220
SWIDTH 833 0
DWIDTH 10 0
BBX 9 12 1 0
BITMAP
3600
3600
0000
F380
6100
6100
6100
6100
6100
6100
6300
3E00
ENDCHAR

STARTCHAR Yacute
ENCODING 221
SWIDTH 722 0
DWIDTH 9 0
BBX 8 12 1 0
BITMAP
0C
18
00
F7
62
36
34
1C
18
18
18
3C
ENDCHAR

STARTCHAR Thorn
ENCODING 222
SWIDTH 759 0
DWIDTH 9 0
BBX 8 9 1 0
BITMAP
F0
60
7E
63
63
63
7E
60
F0
ENDCHAR

STARTCHAR germandbls
ENCODING 223
SWIDTH 611 0
DWIDTH 7 0
BBX 7 9 0 0
BITMAP
3C
66
66
6C
66
66
66
66
EC
ENDCHAR

STARTCHAR agrave
ENCODING 224
SWIDTH 611 0
DWIDTH 7 0
BBX 7 9 0 0
BITMAP
60
30
00
78
CC
1C
6C
CC
F6
ENDCHAR

STARTCHAR aacute
ENCODING 225
SWIDTH 611 0
DWIDTH 7 0
BBX 7 9 0 0
BITMAP
18
30
00
78
CC
1C
6C
CC
F6
ENDCHAR

STARTCHAR acircumflex
ENCODING 226
SWIDTH 611 0
DWIDTH 7 0
BBX 7 9 0 0
BITMAP
30
48
00
78
CC
1C
6C
CC
F6
ENDCHAR

STARTCHAR atilde
ENCODING 227
SWIDTH 611 0
DWIDTH 7 0
BBX 7 10 0 0
BITMAP
28
78
50
00
78
CC
1C
6C
CC
F6
ENDCHAR

STARTCHAR adieresis
ENCODING 228
SWIDTH 611 0
DWIDTH 7 0
BBX 7 9 0 0
BITMAP
6C
6C
00
78
CC
1C
6C
CC
F6
ENDCHAR

STARTCHAR aring
ENCODING 229
SWIDTH 611 0
DWIDTH 7 0
BBX 7 10 0 0
BITMAP
38
28
38
00
78
CC
1C
6C
CC
F6
ENDCHAR

STARTCHAR ae
ENCODING 230
SWIDTH 870 0
DWIDTH 10 0
BBX 10 6 0 0
BITMAP
7B80
CCC0
3FC0
4C00
CC40
F780
ENDCHAR

STARTCHAR ccedilla
ENCODING 231
SWIDTH 556 0
DWIDTH 7 0
BBX 6 9 0 -3
BITMAP
7C
CC
C0
C0
C4
78
10
18
78
ENDCHAR

STARTCHAR egrave
ENCODING 232
SWIDTH 574 0
DWIDTH 7 0
BBX 6 9 0 0
BITMAP
60
30
00
78
CC
FC
C0
C4
78
ENDCHAR

STARTCHAR eacute
ENCODING 233
SWIDTH 574 0
DWIDTH 7 0
BBX 6 9 0 0
BITMAP
18
30
00
78
CC
FC
C0
C4
78
ENDCHAR

STARTCHAR ecircumflex
ENCODING 234
SWIDTH 574 0
DWIDTH 7 0
BBX 6 9 0 0
BITMAP
30
48
00
78
CC
FC
C0
C4
78
ENDCHAR

STARTCHAR edieresis
ENCODING 235
SWIDTH 574 0
DWIDTH 7 0
BBX 6 9 0 0
BITMAP
6C
6C
00
78
CC
FC
C0
C4
78
ENDCHAR

STARTCHAR igrave
ENCODING 236
SWIDTH 370 0
DWIDTH 4 0
BBX 4 9 0 0
BITMAP
C0
60
00
E0
60
60
60
60
F0
ENDCHAR

STARTCHAR iacute
ENCODING 237
SWIDTH 370 0
DWIDTH 4 0
BBX 4 9 0 0
BITMAP
30
60
00
E0
60
60
60
60
F0
ENDCHAR

STARTCHAR icircumflex
ENCODING 238
SWIDTH 370 0
DWIDTH 4 0
BBX 4 9 0 0
BITMAP
60
90
00
E0
60
60
60
60
F0
ENDCHAR

STARTCHAR idieresis
ENCODING 239
SWIDTH 370 0
DWIDTH 4 0
BBX 5 9 0 0
BITMAP
D8
D8
00
E0
60
60
60
60
F0
ENDCHAR

STARTCHAR eth
ENCODING 240
SWIDTH 611 0
DWIDTH 7 0
BBX 7 10 0 0
BITMAP
50
20
50
0C
3C
C6
C6
C6
C6
7C
ENDCHAR

STARTCHAR ntilde
ENCODING 241
SWIDTH 685 0
DWIDTH 8 0
BBX 8 10 0 0
BITMAP
14
3C
28
00
FC
66
66
66
66
FF
ENDCHAR

STARTCHAR ograve
ENCODING 242
SWIDTH 611 0
DWIDTH 7 0
BBX 7 9 0 0
BITMAP
60
30
00
7C
C6
C6
C6
C6
7C
ENDCHAR

STARTCHAR oacute
ENCODING 243
SWIDTH 611 0
DWIDTH 7 0
BBX 7 9 0 0
BITMAP
18
30
00
7C
C6
C6
C6
C6
7C
ENDCHAR

STARTCHAR ocircumflex
ENCODING 244
SWIDTH 611 0
DWIDTH 7 0
BBX 7 9 0 0
BITMAP
18
24
00
7C
C6
C6
C6
C6
7C
ENDCHAR

STARTCHAR otilde
ENCODING 245
SWIDTH 611 0
DWIDTH 7 0
BBX 7 10 0 0
BITMAP
14
3C
28
00
7C
C6
C6
C6
C6
7C
ENDCHAR

STARTCHAR odieresis
ENCODING 246
SWIDTH 611 0
DWIDTH 7 0
BBX 7 9 0 0
BITMAP
6C
6C
00
7C
C6
C6
C6
C6
7C
ENDCHAR

STARTCHAR divide
ENCODING 247
SWIDTH 606 0
DWIDTH 7 0
BBX 6 5 1 1
BITMAP
30
00
FC
00
30
ENDCHAR

STARTCHAR oslash
ENCODING 248
SWIDTH 611 0
DWIDTH 7 0
BBX 7 8 0 -1
BITMAP
02
7C
CE
DE
D6
E6
7C
80
ENDCHAR

STARTCHAR ugrave
ENCODING 249
SWIDTH 685 0
DWIDTH 8 0
BBX 8 9 0 0
BITMAP
30
18
00
EE
66
66
66
7E
37
ENDCHAR

STARTCHAR uacute
ENCODING 250
SWIDTH 685 0
DWIDTH 8 0
BBX 8 9 0 0
BITMAP
0C
18
00
EE
66
66
66
7E
37
ENDCHAR

STARTCHAR ucircumflex
ENCODING 251
SWIDTH 685 0
DWIDTH 8 0
BBX 8 9 0 0
BITMAP
18
24
00
EE
66
66
66
7E
37
ENDCHAR

STARTCHAR udieresis
ENCODING 252
SWIDTH 685 0
DWIDTH 8 0
BBX 8 9 0 0
BITMAP
6C
6C
00
EE
66
66
66
7E
37
ENDCHAR

STARTCHAR yacute
ENCODING 253
SWIDTH 611 0
DWIDTH 7 0
BBX 7 12 0 -3
BITMAP
0C
18
00
EE
64
64
24
38
18
10
D0
E0
ENDCHAR

STARTCHAR thorn
ENCODING 254
SWIDTH 667 0
DWIDTH 8 0
BBX 7 12 0 -3
BITMAP
E0
60
60
7C
66
66
66
66
7C
60
60
F0
ENDCHAR

STARTCHAR ydieresis
ENCODING 255
SWIDTH 611 0
DWIDTH 7 0
BBX 7 12 0 -3
BITMAP
6C
6C
00
EE
64
64
24
38
18
10
D0
E0
ENDCHAR
ENDFONT
